<?xml version="1.0" encoding="UTF-8"?>
<svg version="1.1" xmlns="http://www.w3.org/2000/svg" width="548" height="548">
<path d="M0 0 C1.49506828 -0.00855011 1.49506828 -0.00855011 3.02033997 -0.01727295 C5.12381958 -0.02666591 7.22731353 -0.03323404 9.33081055 -0.03710938 C12.46626386 -0.04671187 15.60103092 -0.07774776 18.73632812 -0.109375 C79.9679349 -0.43080471 140.08028512 22.62030387 187.33203125 61.203125 C188.14365723 61.86248047 188.14365723 61.86248047 188.97167969 62.53515625 C202.71868431 73.77335231 215.43132376 86.17207177 226.33203125 100.203125 C226.93402344 100.9146875 227.53601563 101.62625 228.15625 102.359375 C239.5523944 115.92962661 249.21466033 131.4657355 257.33203125 147.203125 C257.72841797 147.96995605 258.12480469 148.73678711 258.53320312 149.52685547 C275.93115437 183.62385431 287.35854782 222.38280205 287.53515625 260.87109375 C287.54085632 261.86780594 287.5465564 262.86451813 287.5524292 263.89143372 C287.56182216 265.99491333 287.56839029 268.09840728 287.57226562 270.2019043 C287.58186812 273.33735761 287.61290401 276.47212467 287.64453125 279.60742188 C287.96596096 340.83902865 264.91485238 400.95137887 226.33203125 448.203125 C225.89246094 448.74420898 225.45289063 449.28529297 225 449.84277344 C213.76180394 463.58977806 201.36308448 476.30241751 187.33203125 487.203125 C186.2646875 488.10611328 186.2646875 488.10611328 185.17578125 489.02734375 C171.60552964 500.42348815 156.06942075 510.08575408 140.33203125 518.203125 C139.5652002 518.59951172 138.79836914 518.99589844 138.00830078 519.40429688 C103.91130194 536.80224812 65.1523542 548.22964157 26.6640625 548.40625 C25.66735031 548.41195007 24.67063812 548.41765015 23.64372253 548.42352295 C21.54024292 548.43291591 19.43674897 548.43948404 17.33325195 548.44335938 C14.19779864 548.45296187 11.06303158 548.48399776 7.92773438 548.515625 C-53.3038724 548.83705471 -113.41622262 525.78594613 -160.66796875 487.203125 C-161.20905273 486.76355469 -161.75013672 486.32398438 -162.30761719 485.87109375 C-176.05462181 474.63289769 -188.76726126 462.23417823 -199.66796875 448.203125 C-200.57095703 447.13578125 -200.57095703 447.13578125 -201.4921875 446.046875 C-212.8883319 432.47662339 -222.55059783 416.9405145 -230.66796875 401.203125 C-231.06435547 400.43629395 -231.46074219 399.66946289 -231.86914062 398.87939453 C-249.26709187 364.78239569 -260.69448532 326.02344795 -260.87109375 287.53515625 C-260.87964386 286.04008797 -260.87964386 286.04008797 -260.8883667 284.51481628 C-260.89775966 282.41133667 -260.90432779 280.30784272 -260.90820312 278.2043457 C-260.91780562 275.06889239 -260.94884151 271.93412533 -260.98046875 268.79882812 C-261.30189846 207.56722135 -238.25078988 147.45487113 -199.66796875 100.203125 C-199.22839844 99.66204102 -198.78882813 99.12095703 -198.3359375 98.56347656 C-187.09774144 84.81647194 -174.69902198 72.10383249 -160.66796875 61.203125 C-159.95640625 60.60113281 -159.24484375 59.99914063 -158.51171875 59.37890625 C-144.94146714 47.98276185 -129.40535825 38.32049592 -113.66796875 30.203125 C-112.9011377 29.80673828 -112.13430664 29.41035156 -111.34423828 29.00195312 C-77.24723944 11.60400188 -38.4882917 0.17660843 0 0 Z " fill="#53321F" transform="translate(260.66796875,-0.203125)"/>
<path d="M0 0 C0.86825912 0.00222061 1.73651825 0.00444122 2.63108826 0.00672913 C3.61202957 0.00680466 4.59297089 0.00688019 5.6036377 0.00695801 C6.6702916 0.01211929 7.7369455 0.01728058 8.83592224 0.02259827 C10.46520912 0.02472069 10.46520912 0.02472069 12.12741089 0.02688599 C15.61230674 0.03250403 19.09713941 0.04505959 22.58201599 0.05775452 C24.93813486 0.06276719 27.29425473 0.0673305 29.65037537 0.07142639 C35.44011063 0.08247933 41.2298088 0.09923501 47.01951599 0.12025452 C52.31244528 12.51419391 52.31244528 12.51419391 54.01951599 18.62025452 C55.57609553 23.87761754 57.4973703 28.83545782 59.66941833 33.8653717 C61.00903002 37.09497443 62.21045331 40.3432845 63.37498474 43.63978577 C64.02721008 45.48068787 64.02721008 45.48068787 64.69261169 47.35877991 C65.13049011 48.60006653 65.56836853 49.84135315 66.01951599 51.12025452 C71.24456962 65.87866639 76.4996204 80.60265496 82.24900818 95.16566467 C86.85864314 106.85918099 90.9350407 118.6887808 94.86082458 130.629776 C96.57208666 135.82804567 98.2957881 141.00533557 100.25657654 146.11512756 C101.16746088 148.50907737 102.03412648 150.91753373 102.90232849 153.32728577 C105.14906879 159.52022377 107.51745487 165.66389558 109.89451599 171.80775452 C120.7295943 199.91533931 120.7295943 199.91533931 125.01951599 213.12025452 C125.86891964 215.72600571 126.72438485 218.32970123 127.58201599 220.93275452 C127.97518005 222.13544983 128.36834412 223.33814514 128.77342224 224.57728577 C130.03721712 228.17058343 131.51419413 231.62247747 133.01951599 235.12025452 C133.71112879 237.09084247 134.37914143 239.06992516 135.01951599 241.05775452 C137.43228044 248.52727112 140.27926842 255.81555865 143.14451599 263.12025452 C145.23028958 268.43875094 147.26834043 273.77037973 149.23045349 279.13587952 C152.92415041 289.21247455 156.62154344 299.04625004 161.70701599 308.51087952 C163.01951599 311.12025452 163.01951599 311.12025452 163.45701599 313.35462952 C163.86228364 315.30077331 163.86228364 315.30077331 165.85154724 316.21400452 C166.56697693 316.51306702 167.28240662 316.81212952 168.01951599 317.12025452 C169.25431615 317.94521737 170.48336913 318.77883697 171.70701599 319.62025452 C175.44999013 322.01238085 178.88052912 323.01408181 183.23435974 323.76087952 C185.01951599 324.12025452 185.01951599 324.12025452 186.01951599 325.12025452 C186.01951599 327.43025452 186.01951599 329.74025452 186.01951599 332.12025452 C129.25951599 332.12025452 72.49951599 332.12025452 14.01951599 332.12025452 C14.01951599 329.81025452 14.01951599 327.50025452 14.01951599 325.12025452 C17.41612926 323.70040897 20.77548395 322.56729054 24.33201599 321.62025452 C25.28334412 321.3663092 26.23467224 321.11236389 27.21482849 320.85072327 C30.81035091 319.91428498 34.41101229 319.0053592 38.01951599 318.12025452 C38.01951599 317.46025452 38.01951599 316.80025452 38.01951599 316.12025452 C38.67951599 316.12025452 39.33951599 316.12025452 40.01951599 316.12025452 C47.04292983 302.57509925 44.10438283 287.33505408 40.01951599 273.12025452 C39.36712473 271.7798785 38.70163964 270.44574671 38.01951599 269.12025452 C37.22939948 266.22453957 36.56854494 263.31144375 35.89842224 260.38587952 C34.86624877 256.55078164 33.41402686 252.83895016 32.01951599 249.12025452 C29.37951599 240.87025452 26.73951599 232.62025452 24.01951599 224.12025452 C-5.35048401 223.79025452 -34.72048401 223.46025452 -64.98048401 223.12025452 C-67.26898346 229.94725941 -67.26898346 229.94725941 -69.44532776 236.80384827 C-73.88978193 251.15861634 -73.88978193 251.15861634 -76.04298401 256.18275452 C-78.86090089 262.86793808 -80.58047366 269.96677455 -82.41261292 276.97328186 C-82.77763751 278.35334476 -83.15884955 279.72928191 -83.56007385 281.09925842 C-85.07539105 286.497152 -85.34710266 291.65489633 -85.35548401 297.24525452 C-85.39222229 298.54656311 -85.39222229 298.54656311 -85.42970276 299.87416077 C-85.46090283 306.70697553 -83.67300323 310.34854355 -78.85548401 315.30775452 C-75.50184193 317.42200713 -72.3389603 318.36308146 -68.53517151 319.40150452 C-66.22364356 320.05184265 -64.02905681 320.81268728 -61.79298401 321.68275452 C-58.23669894 323.05891371 -54.66058069 324.12356167 -50.98048401 325.12025452 C-50.98048401 327.43025452 -50.98048401 329.74025452 -50.98048401 332.12025452 C-80.35048401 332.12025452 -109.72048401 332.12025452 -139.98048401 332.12025452 C-139.98048401 329.15025452 -139.98048401 326.18025452 -139.98048401 323.12025452 C-139.35142151 322.97330139 -138.72235901 322.82634827 -138.07423401 322.67494202 C-129.28964244 320.37295567 -123.35335327 316.48191841 -117.98048401 309.12025452 C-116.6148888 306.69590836 -115.33231139 304.29915782 -114.10548401 301.80775452 C-113.75888733 301.10843811 -113.41229065 300.4091217 -113.05519104 299.68861389 C-110.14887201 293.70178428 -107.73117263 287.59714456 -105.49806213 281.33241272 C-104.11036467 277.46237357 -102.66902967 273.61431152 -101.21485901 269.76869202 C-97.5396845 260.00946453 -94.02405798 250.19361603 -90.5068512 240.37660217 C-87.73614466 232.64770511 -84.96304652 224.93831542 -81.86134338 217.33460999 C-80.29308828 213.3922392 -78.92432672 209.38110298 -77.54298401 205.37025452 C-76.93394589 203.61623126 -76.32456926 201.8623255 -75.71485901 200.10853577 C-75.42030823 199.25984924 -75.12575745 198.41116272 -74.82228088 197.53675842 C-70.08632847 183.94149826 -65.10858861 170.43144361 -60.10548401 156.93275452 C-59.6642218 155.74093567 -59.22295959 154.54911682 -58.76832581 153.32118225 C-56.69318311 147.7208476 -54.61023116 142.12392346 -52.49537659 136.53846741 C-49.0975971 127.56157415 -45.94215585 118.50552274 -42.79005432 109.44007874 C-38.07302594 95.92343107 -33.13240793 82.48507355 -28.16798401 69.05775452 C-27.73220032 67.8783429 -27.29641663 66.69893127 -26.84742737 65.48377991 C-24.31328921 58.6473377 -21.72112433 51.83895256 -19.04298401 45.05775452 C-17.00483682 39.8903774 -15.15427585 34.73359551 -13.64454651 29.38587952 C-11.50892334 22.09963578 -8.58917838 15.04809197 -5.79298401 7.99525452 C-5.39986023 6.99909119 -5.39986023 6.99909119 -4.99879456 5.98280334 C-2.66851028 0.16203131 -2.66851028 0.16203131 0 0 Z " fill="#B28767" transform="translate(260.98048400878906,84.87974548339844)"/>
<path d="M0 0 C0.99 0.33 1.98 0.66 3 1 C4.67022458 4.80811204 5.8486035 8.36457143 6.8125 12.41015625 C8.35012702 18.66472523 10.44162824 24.75518642 12.4375 30.875 C14.80388992 38.15560586 17.16023845 45.43275062 19.33569336 52.77294922 C20.36902055 56.23712072 21.46623512 59.68033455 22.5625 63.125 C25.23330786 71.55251128 27.88054821 79.98730564 30.51901245 88.42498779 C30.95980633 89.83444157 31.400821 91.24382632 31.84207153 92.65313721 C33.23428888 97.10016572 34.61893596 101.54949169 36 106 C36.3192041 107.01690918 36.6384082 108.03381836 36.96728516 109.08154297 C37.24233887 109.97115723 37.51739258 110.86077148 37.80078125 111.77734375 C38.15329956 112.90837524 38.15329956 112.90837524 38.51293945 114.06225586 C39 116 39 116 39 119 C13.26 119 -12.48 119 -39 119 C-38.23666347 113.65664431 -37.4405091 109.97906654 -35.625 105.0625 C-35.08552712 103.57744388 -34.54794207 102.09170131 -34.01171875 100.60546875 C-33.70153809 99.74743652 -33.39135742 98.8894043 -33.07177734 98.00537109 C-31.05397221 92.34724326 -29.11054861 86.66319845 -27.1605835 80.98141479 C-26.45728043 78.93262237 -25.7524446 76.88436266 -25.04736328 74.83618164 C-21.97756819 65.90838936 -18.97395828 56.96016615 -16 48 C-15.26335735 45.78895035 -14.52638891 43.57800922 -13.7890625 41.3671875 C-13.43448975 40.30346924 -13.07991699 39.23975098 -12.71459961 38.14379883 C-8.47639974 25.42919922 -4.23819987 12.71459961 0 0 Z " fill="#54321F" transform="translate(241,173)"/>
<path d="M0 0 C0.33 0.66 0.66 1.32 1 2 C1.99 1.67 2.98 1.34 4 1 C3.01 4.3 2.02 7.6 1 11 C0.34 10.67 -0.32 10.34 -1 10 C-1.66 10.99 -2.32 11.98 -3 13 C-3.31563182 7.73946963 -2.66590937 4.55426184 0 0 Z " fill="#5C3821" transform="translate(247,105)"/>
<path d="M0 0 C0.33 0.66 0.66 1.32 1 2 C1.99 1.67 2.98 1.34 4 1 C3.54965877 2.62723299 3.08944646 4.25173664 2.625 5.875 C2.36976563 6.77992188 2.11453125 7.68484375 1.8515625 8.6171875 C1 11 1 11 -1 13 C-2.51297182 10.59704475 -3.03665969 9.36659693 -2.75 6.5 C-2.045492 4.15164001 -1.18844709 2.13920477 0 0 Z " fill="#5D3821" transform="translate(183,281)"/>
<path d="M0 0 C1.74959319 2.62438979 2.62068453 3.96547627 3 7 C2.01 8.485 2.01 8.485 1 10 C0.34 10 -0.32 10 -1 10 C-1.33 8.35 -1.66 6.7 -2 5 C-2.66 5 -3.32 5 -4 5 C-3.67 4.01 -3.34 3.02 -3 2 C-2.34 2 -1.68 2 -1 2 C-0.67 1.34 -0.34 0.68 0 0 Z " fill="#A87E62" transform="translate(320,119)"/>
<path d="M0 0 C0.66 0.99 1.32 1.98 2 3 C1.525625 3.886875 1.05125 4.77375 0.5625 5.6875 C-0.79737149 8.57042756 -1.54060386 10.87610623 -2 14 C-2.66 14 -3.32 14 -4 14 C-3.36843005 8.94744036 -1.86540627 4.70406799 0 0 Z " fill="#9E775B" transform="translate(173,318)"/>
<path d="M0 0 C0.66 0.66 1.32 1.32 2 2 C2.66 1.67 3.32 1.34 4 1 C3.01 4.3 2.02 7.6 1 11 C0.34 10.34 -0.32 9.68 -1 9 C-0.9765625 6.8359375 -0.9765625 6.8359375 -0.625 4.375 C-0.51414063 3.55773437 -0.40328125 2.74046875 -0.2890625 1.8984375 C-0.19367188 1.27195313 -0.09828125 0.64546875 0 0 Z " fill="#5E3B24" transform="translate(215,193)"/>
<path d="M0 0 C-0.33 1.65 -0.66 3.3 -1 5 C-3.4375 4.625 -3.4375 4.625 -6 4 C-6.33 3.34 -6.66 2.68 -7 2 C-2.25 0 -2.25 0 0 0 Z " fill="#A88162" transform="translate(296,404)"/>
<path d="M0 0 C1.40907283 2.81814566 0.50872691 4.17277204 -0.4375 7.125 C-0.72496094 8.03507812 -1.01242188 8.94515625 -1.30859375 9.8828125 C-1.53675781 10.58148438 -1.76492187 11.28015625 -2 12 C-2.66 11.34 -3.32 10.68 -4 10 C-3.60761402 6.33773088 -1.68433117 3.22219876 0 0 Z " fill="#A68065" transform="translate(177,362)"/>
<path d="M0 0 C1 2 1 2 0.4375 3.9375 C-1.5350252 6.76764485 -3.88495996 7.64563476 -7 9 C-7 8.34 -7 7.68 -7 7 C-6.34 7 -5.68 7 -5 7 C-5 6.34 -5 5.68 -5 5 C-4.34 5 -3.68 5 -3 5 C-2.690625 4.360625 -2.38125 3.72125 -2.0625 3.0625 C-1 1 -1 1 0 0 Z " fill="#A47C63" transform="translate(304,396)"/>
<path d="M0 0 C0.99 0 1.98 0 3 0 C3.66 2.64 4.32 5.28 5 8 C4.01 7.67 3.02 7.34 2 7 C0.8125 3.4375 0.8125 3.4375 0 0 Z " fill="#A88165" transform="translate(324,136)"/>
<path d="M0 0 C-0.99 0.33 -1.98 0.66 -3 1 C-3.66 0.67 -4.32 0.34 -5 0 C-5 0.66 -5 1.32 -5 2 C-4.34 2.33 -3.68 2.66 -3 3 C-4.65 2.67 -6.3 2.34 -8 2 C-8 1.34 -8 0.68 -8 0 C-5.13822943 -1.43088528 -3.06624227 -0.59991697 0 0 Z " fill="#A27A5A" transform="translate(195,405)"/>
</svg>
